<?xml version="1.0" encoding="UTF-8" standalone="no"?>
<!DOCTYPE svg PUBLIC "-//W3C//DTD SVG 1.1//EN" "http://www.w3.org/Graphics/SVG/1.1/DTD/svg11.dtd">
<svg width="100%" height="100%" viewBox="0 0 3840 2160" version="1.1" xmlns="http://www.w3.org/2000/svg" xmlns:xlink="http://www.w3.org/1999/xlink" xml:space="preserve" xmlns:serif="http://www.serif.com/" style="fill-rule:evenodd;clip-rule:evenodd;stroke-linejoin:round;stroke-miterlimit:2;">
    <g transform="matrix(-1.60076,0.616948,-0.144402,-0.374671,4410.46,603.204)">
        <path d="M200,600C266.667,600 333.333,800 400,800C466.667,800 533.333,600 600,600C666.667,600 733.333,800 800,800C866.667,800 933.333,600 1000,600C1066.67,600 1133.33,800 1200,800C1266.67,800 1333.33,600 1400,600C1466.67,600 1533.33,800 1600,800C1666.67,800 1733.33,600 1800,600C1866.67,600 1933.33,800 2000,800C2066.67,800 2133.33,600 2200,600C2266.67,600 2333.33,800 2400,800C2466.67,800 2533.33,600 2600,600C2666.67,600 2734.35,799.53 2800,800C2866.66,800.477 2694,992.769 2600,1000C2166.67,1033.33 633.333,1033.33 200,1000C105.997,992.769 -66.666,800.353 0,800C62.915,799.667 133.333,600 200,600Z" style="fill:rgb(210,231,255);"/>
    </g>
    <g transform="matrix(-1.60076,0.616948,-0.144402,-0.374671,4390.46,543.204)">
        <path d="M200,600C266.667,600 333.333,800 400,800C466.667,800 533.333,600 600,600C666.667,600 733.333,800 800,800C866.667,800 933.333,600 1000,600C1066.67,600 1133.33,800 1200,800C1266.67,800 1333.33,600 1400,600C1466.67,600 1533.33,800 1600,800C1666.67,800 1733.33,600 1800,600C1866.67,600 1933.33,800 2000,800C2066.67,800 2133.33,600 2200,600C2266.67,600 2333.33,800 2400,800C2466.67,800 2533.33,600 2600,600C2666.67,600 2734.35,799.53 2800,800C2866.66,800.477 2694,992.769 2600,1000C2166.67,1033.33 633.333,1033.33 200,1000C105.997,992.769 -66.666,800.353 0,800C62.915,799.667 133.333,600 200,600Z" style="fill:rgb(188,219,255);"/>
    </g>
    <g transform="matrix(-1.60076,0.616948,-0.144402,-0.374671,4370.46,483.204)">
        <path d="M200,600C266.667,600 333.333,800 400,800C466.667,800 533.333,600 600,600C666.667,600 733.333,800 800,800C866.667,800 933.333,600 1000,600C1066.67,600 1133.33,800 1200,800C1266.67,800 1333.33,600 1400,600C1466.67,600 1533.33,800 1600,800C1666.67,800 1733.33,600 1800,600C1866.67,600 1933.33,800 2000,800C2066.67,800 2133.33,600 2200,600C2266.67,600 2333.33,800 2400,800C2466.67,800 2533.33,600 2600,600C2666.67,600 2734.35,799.53 2800,800C2866.66,800.477 2694,992.769 2600,1000C2166.67,1033.33 633.333,1033.33 200,1000C105.997,992.769 -66.666,800.353 0,800C62.915,799.667 133.333,600 200,600Z" style="fill:rgb(173,211,255);"/>
    </g>
    <g transform="matrix(-1.60076,0.616948,-0.144402,-0.374671,4350.46,423.204)">
        <path d="M200,600C266.667,600 333.333,800 400,800C466.667,800 533.333,600 600,600C666.667,600 733.333,800 800,800C866.667,800 933.333,600 1000,600C1066.67,600 1133.33,800 1200,800C1266.67,800 1333.33,600 1400,600C1466.67,600 1533.33,800 1600,800C1666.67,800 1733.33,600 1800,600C1866.67,600 1933.33,800 2000,800C2066.67,800 2133.33,600 2200,600C2266.67,600 2333.33,800 2400,800C2466.67,800 2533.33,600 2600,600C2666.67,600 2734.35,799.53 2800,800C2866.66,800.477 2694,992.769 2600,1000C2166.67,1033.33 633.333,1033.33 200,1000C105.997,992.769 -66.666,800.353 0,800C62.915,799.667 133.333,600 200,600Z" style="fill:rgb(158,204,255);"/>
    </g>
    <g transform="matrix(-1.26963,0.483743,-1.23823,-3.24986,5274.5,2154.08)">
        <rect x="376.209" y="659.499" width="3339.13" height="468.57" style="fill:rgb(158,204,255);"/>
    </g>
</svg>
